<?xml version="1.0" encoding="UTF-8"?>
<svg xmlns="http://www.w3.org/2000/svg" xmlns:xlink="http://www.w3.org/1999/xlink" width="px" height="px" viewBox="0 0 320 256" version="1.1">
<g id="surface1">
<path style=" stroke:none;fill-rule:nonzero;fill:rgb(0%,0%,0%);fill-opacity:1;" d="M 262.265625 34.917969 C 262.183594 34.757812 262.046875 34.636719 261.882812 34.566406 C 242.820312 25.824219 222.707031 19.585938 202.039062 16.015625 C 201.65625 15.945312 201.269531 16.125 201.078125 16.46875 C 198.339844 21.441406 195.851562 26.546875 193.628906 31.769531 C 171.351562 28.386719 148.691406 28.386719 126.414062 31.769531 C 124.175781 26.535156 121.652344 21.425781 118.847656 16.46875 C 118.652344 16.136719 118.269531 15.953125 117.886719 16.015625 C 97.21875 19.578125 77.101562 25.816406 58.042969 34.570312 C 57.878906 34.636719 57.742188 34.753906 57.648438 34.90625 C 19.535156 91.824219 9.09375 147.34375 14.214844 202.175781 C 14.242188 202.449219 14.382812 202.695312 14.597656 202.863281 C 36.792969 219.296875 61.613281 231.839844 88.011719 239.960938 C 88.390625 240.074219 88.800781 239.9375 89.042969 239.621094 C 94.710938 231.90625 99.734375 223.738281 104.058594 215.199219 C 104.179688 214.964844 104.191406 214.6875 104.097656 214.4375 C 104 214.191406 103.800781 213.996094 103.550781 213.90625 C 95.628906 210.875 87.960938 207.222656 80.617188 202.980469 C 80.34375 202.820312 80.171875 202.535156 80.152344 202.222656 C 80.132812 201.910156 80.273438 201.605469 80.523438 201.417969 C 82.066406 200.261719 83.605469 199.0625 85.078125 197.847656 C 85.34375 197.628906 85.714844 197.578125 86.027344 197.71875 C 134.144531 219.679688 186.234375 219.679688 233.777344 197.71875 C 234.09375 197.570312 234.46875 197.613281 234.742188 197.835938 C 236.210938 199.050781 237.753906 200.261719 239.304688 201.417969 C 239.558594 201.605469 239.699219 201.90625 239.683594 202.21875 C 239.667969 202.535156 239.496094 202.816406 239.226562 202.980469 C 231.898438 207.257812 224.222656 210.910156 216.28125 213.894531 C 216.03125 213.988281 215.832031 214.1875 215.738281 214.433594 C 215.644531 214.683594 215.660156 214.960938 215.78125 215.199219 C 220.179688 223.691406 225.195312 231.851562 230.789062 239.609375 C 231.019531 239.933594 231.4375 240.074219 231.820312 239.957031 C 258.261719 231.867188 283.128906 219.320312 305.351562 202.863281 C 305.570312 202.703125 305.707031 202.457031 305.734375 202.1875 C 311.863281 138.796875 295.464844 83.734375 262.265625 34.917969 Z M 111.246094 168.789062 C 96.757812 168.789062 84.824219 155.496094 84.824219 139.171875 C 84.824219 122.84375 96.527344 109.550781 111.246094 109.550781 C 126.078125 109.550781 137.898438 122.960938 137.667969 139.167969 C 137.667969 155.496094 125.960938 168.789062 111.246094 168.789062 Z M 208.933594 168.789062 C 194.449219 168.789062 182.515625 155.496094 182.515625 139.171875 C 182.515625 122.84375 194.21875 109.550781 208.933594 109.550781 C 223.769531 109.550781 235.589844 122.960938 235.359375 139.167969 C 235.359375 155.496094 223.769531 168.789062 208.933594 168.789062 Z M 208.933594 168.789062 "/>
</g>
</svg>
