<?xml version="1.0" encoding="UTF-8"?>
<svg xmlns="http://www.w3.org/2000/svg" xmlns:xlink="http://www.w3.org/1999/xlink" width="px" height="px" viewBox="0 0 256 256" version="1.1">
<g id="surface1">
<path style=" stroke:none;fill-rule:nonzero;fill:rgb(0%,0%,0%);fill-opacity:1;" d="M 103.898438 10.363281 C 57.175781 19.523438 19.550781 57.195312 10.398438 103.914062 C -3.421875 174.363281 44.726562 237.015625 109.949219 246.464844 C 119.453125 247.910156 128.035156 240.335938 128.035156 230.71875 L 128.035156 230.386719 C 128.035156 222.519531 122.316406 215.949219 114.613281 214.769531 C 72.441406 208.277344 40.015625 171.703125 40.015625 127.667969 C 40.015625 76.21875 84.320312 34.917969 136.714844 39.96875 C 182.484375 44.402344 216.015625 85.59375 216.015625 131.570312 L 216.015625 139.648438 C 216.015625 150.695312 207.046875 159.671875 196.015625 159.671875 C 184.984375 159.671875 176.011719 150.695312 176.011719 139.648438 L 176.011719 79.597656 C 176.011719 75.175781 172.429688 71.589844 168.003906 71.589844 L 152.015625 71.589844 C 148.367188 71.589844 145.414062 74.085938 144.453125 77.429688 C 132.03125 71.355469 117.335938 69.242188 101.425781 74.878906 C 82.050781 81.742188 67.363281 99.332031 64.566406 119.695312 C 59.824219 154.203125 86.46875 183.695312 120.015625 183.695312 C 133.234375 183.695312 145.230469 178.925781 154.808594 171.257812 C 166.808594 186.90625 187.425781 195.601562 209.511719 190.003906 C 232.601562 184.648438 248 162.050781 247.550781 138.601562 L 247.550781 128.148438 C 247.550781 53.550781 180.601562 -4.664062 103.898438 10.363281 Z M 119.550781 152.148438 C 106.316406 152.148438 95.550781 141.371094 95.550781 128.125 C 95.550781 114.878906 106.316406 104.101562 119.550781 104.101562 C 132.785156 104.101562 143.550781 114.878906 143.550781 128.125 C 143.550781 141.371094 133.25 152.148438 119.550781 152.148438 Z M 119.550781 152.148438 "/>
</g>
</svg>
