<?xml version="1.0" encoding="UTF-8"?>
<svg xmlns="http://www.w3.org/2000/svg" xmlns:xlink="http://www.w3.org/1999/xlink" width="px" height="px" viewBox="0 0 256 256" version="1.1">
<g id="surface1">
<path style=" stroke:none;fill-rule:nonzero;fill:rgb(0%,0%,0%);fill-opacity:1;" d="M 252 128 C 252 59.5 196.5 4 128 4 C 59.5 4 4 59.5 4 128 C 4 189.890625 49.34375 241.191406 108.625 250.5 L 108.625 163.84375 L 77.125 163.84375 L 77.125 128 L 108.625 128 L 108.625 100.679688 C 108.625 69.605469 127.125 52.441406 155.460938 52.441406 C 169.03125 52.441406 183.21875 54.859375 183.21875 54.859375 L 183.21875 85.359375 L 167.578125 85.359375 C 152.179688 85.359375 147.375 94.921875 147.375 104.726562 L 147.375 128 L 181.765625 128 L 176.265625 163.84375 L 147.375 163.84375 L 147.375 250.5 C 206.65625 241.191406 252 189.890625 252 128 Z M 252 128 "/>
</g>
</svg>
