<?xml version="1.0" encoding="UTF-8"?>
<svg xmlns="http://www.w3.org/2000/svg" xmlns:xlink="http://www.w3.org/1999/xlink" width="px" height="px" viewBox="0 0 288 256" version="1.1">
<g id="surface1">
<path style=" stroke:none;fill-rule:nonzero;fill:rgb(0%,0%,0%);fill-opacity:1;" d="M 204 60 C 204 87.300781 167.449219 135.949219 151.398438 155.550781 C 147.550781 160.800781 140.449219 160.800781 136.601562 155.550781 C 120.550781 135.949219 84 87.300781 84 60 C 84 26.863281 110.851562 0 144 0 C 177.148438 0 204 26.863281 204 60 Z M 144 76 C 155.050781 76 164 67.050781 164 56 C 164 44.953125 155.050781 36 144 36 C 132.949219 36 124 44.953125 124 56 C 124 67.050781 132.949219 76 144 76 Z M 212.800781 89.898438 C 213.050781 89.300781 213.300781 88.699219 213.550781 88.050781 L 271.550781 64.851562 C 279.449219 61.699219 288 67.5 288 76 L 288 211.398438 C 288 216.300781 285 220.699219 280.449219 222.550781 L 208 251.5 L 208 100.199219 C 209.75 96.75 211.351562 93.351562 212.800781 89.898438 Z M 75.199219 89.898438 C 76.648438 93.351562 78.25 96.75 80 100.199219 L 80 225.898438 L 16.453125 251.351562 C 8.574219 254.050781 0 248.699219 0 240.199219 L 0 104.800781 C 0 99.898438 2.988281 95.050781 7.546875 93.648438 L 68.800781 69.148438 C 70 76.25 72.449219 83.300781 75.199219 89.898438 Z M 163.898438 165.550781 C 170.851562 157.300781 181.75 143.148438 192 127.5 L 192 252.148438 L 96 224.699219 L 96 127.5 C 106.25 143.148438 117.148438 157.300781 124.101562 165.550781 C 134.351562 178.800781 153.648438 178.800781 163.898438 165.550781 Z M 163.898438 165.550781 "/>
</g>
</svg>
